<?xml version="1.0" encoding="UTF-8" standalone="no"?>
<!-- Created with Inkscape (http://www.inkscape.org/) -->

<svg
   width="100%"
   viewBox="0 0 400 500"
   id="svg30459"
   version="1.1"
 >
  <defs
     id="defs30461" />
  
  <metadata
     id="metadata30464">
  </metadata>
  <g
     id="layer1"
     transform="translate(-301.27798,53.906055)">
    <rect
       style="fill:#ffd033;fill-opacity:1;stroke:none"
       id="rect31009"
       width="400"
       height="500.42926"
       x="301.27798"
       y="-53.906055"
       ry="20.310856" />
    <path
       style="fill:#000000;stroke:none"
       d="m 492.58727,-16.877537 c -0.19612,2.169592 -1.48274,3.385064 -3.29275,4.142488 -1.64636,-0.743552 -3.39551,-1.1446 -4.46115,-3.82384 0,0 -1.01667,7.4049277 -3.29275,7.3290317 -2.27612,-0.07584 -4.1425,-2.6554477 -4.1425,-2.6554477 0,0 -0.62224,7.8904717 -0.31848,14.3393997 0.30353,6.44896 2.18503,14.8704863 0.74353,18.5881093 -1.44188,3.717617 -17.73853,9.028509 -17.73853,9.028509 0,0 5.40193,-4.59772 5.62953,-12.108829 0.22773,-7.511103 -3.29275,-10.8342133 -3.29275,-10.8342133 0,0 -6.55518,5.1895163 -7.54146,10.1969103 -0.98631,5.007429 -1.1684,10.409338 -1.1684,10.409338 -6.24815,-0.801949 -11.75281,-0.265458 -16.99484,0.743525 0.49353,-6.404405 -4.5089,-10.643731 -10.62177,-14.445617 0,0 -3.96041,4.4156 -2.44301,12.002612 0.36807,1.84044 1.59326,3.186531 1.59326,3.186531 0,0 -4.33976,-0.0136 -6.16063,-3.505189 -0.59657,-1.14348 0.80423,-16.0388799 2.54923,-19.7565023 1.745,-3.717624 2.65545,-14.870488 2.65545,-14.870488 0,0 -4.58256,2.3216 -5.9482,0.95596 -1.36567,-1.365664 -4.14249,-2.8678797 -4.14249,-2.8678797 0,0 -0.89528,4.0514397 -4.99224,4.8860157 -4.09697,0.834552 -7.11659,-0.10604 -7.11659,-0.10604 0,0 1.7902,4.810144 -0.10604,6.47927997 -1.89676,1.66912803 -7.54146,0.21244 -7.54146,0.21244 0,0 3.20182,8.04219203 0.31849,6.90415203 -2.88304,-1.138048 -1.91192,-5.204672 -1.91192,-5.204672 0,0 -4.52186,6.266848 -2.54924,12.1088263 1.97263,5.841977 11.15287,18.694326 11.15287,18.694326 0,0 2.54922,-1.487052 4.67358,-0.95596 2.12435,0.531085 3.50519,-7.541464 3.50519,-7.541464 0,0 3.97556,6.145469 6.47928,7.43524 2.50368,1.289812 8.81608,1.062184 8.81608,1.062184 0,0 -7.48076,0.485542 -10.51556,1.69948 -3.03477,1.213908 -5.76608,3.869354 -9.5596,3.186536 -3.79348,-0.682856 -19.75651,-10.090691 -19.75651,-10.090691 0,0 8.45191,11.623251 14.44562,13.595875 5.99374,1.972622 10.18171,-1.896726 16.78241,-3.186532 6.11732,-1.195314 10.47623,-0.7596 12.42748,0.212434 -3.14671,4.551354 -4.81696,19.6218 -6.79795,23.155474 -3.00492,5.360172 -2.60989,16.312024 -3.82384,18.588104 -1.2139,2.276085 7.14695,9.165079 14.12697,6.585502 6.98002,-2.579543 7.7539,-13.808308 7.7539,-13.808308 l 9.5596,-5.629709 c -0.12271,0.034 1.0064,18.036623 9.24094,23.155469 6.91833,4.300645 3.09812,11.271627 7.54146,19.119197 0.16995,-3.69267 0.34754,-7.47375 1.69948,-9.984471 1.64626,6.043301 5.19478,10.271141 9.66582,13.489661 -0.96093,-4.33641 -1.44864,-8.31663 0,-11.04665 0.0795,5.0283 4.83218,8.45276 10.94043,11.47151 0,0 0.83893,21.06399 1.91192,28.36015 1.07295,7.29612 0.86915,41.18662 -1.06217,43.76171 -1.93134,2.57513 -7.32904,11.15287 -7.32904,11.15287 3.05425,2.68637 7.381,0.88747 11.15288,1.06218 0,0 3.48363,-5.51473 5.62953,-6.37307 2.14594,-0.85838 7.86011,-4.7798 7.86011,-4.7798 0,0 -7.212,-30.27474 -8.28498,-40.57518 -1.07295,-10.30044 3.39897,-31.1218 3.39897,-31.1218 3.17178,1.67919 27.76933,-1.40375 33.03373,-2.33679 8.45459,-1.49847 25.06738,1.06217 25.06738,1.06217 0,0 0.7349,6.44479 1.59327,9.87826 0.85837,3.4335 9.86533,12.52077 11.15287,13.8083 1.28765,1.28757 0.21685,17.75186 -0.21244,26.97931 -0.42919,9.22749 -4.11014,16.33382 -7.32903,18.69433 -3.21885,2.36051 -7.11659,7.75389 -7.11659,7.75389 0.84407,1.40677 10.39446,1.16945 11.3653,0.21244 0.96653,-0.95276 5.18955,-6.02205 6.69172,-9.24095 1.50214,-3.21889 2.74653,-15.077 4.24872,-26.23578 1.50213,-11.15881 7.12089,-17.18355 6.69172,-19.54407 -0.4292,-2.36051 -7.75391,-17.15123 -7.75391,-22.7306 0,-5.57941 4.99224,-10.30312 4.99224,-10.30312 0,0 3.35583,6.62703 7.64768,13.06478 4.29184,6.43779 10.30312,8.87916 10.30312,13.171 0,4.29185 10.08637,21.84205 10.51556,25.7047 0.42919,3.86269 6.29488,28.75912 3.50519,31.33424 -2.78971,2.57509 -4.56736,7.7539 -4.56736,7.7539 2.28896,2.00162 4.61517,0.38272 6.90415,0.21243 0,0 5.30885,-9.00264 5.52332,-11.57773 0.21447,-2.57509 -0.39901,-10.10415 -2.9741,-19.33163 -2.57499,-9.22745 -0.62008,-22.27337 -2.33679,-25.49227 -1.71675,-3.21889 -7.7453,-9.52941 -8.60364,-12.53369 -0.85838,-3.00428 -3.19298,-36.825204 -2.54922,-40.044096 0.6438,-3.218891 1.2962,-12.451749 -0.84975,-20.606245 -2.1459,-8.154532 -18.738,-19.312224 -24.96117,-21.243555 -6.22317,-1.931325 -22.09007,7.03196 -43.54928,4.886017 -21.45925,-2.145902 -20.66684,-8.54072 -29.10367,-11.577731 -11.82881,-4.258057 -26.37874,-2.562926 -28.67879,-2.230577 0.21346,-0.178783 15.55701,-13.018794 18.26946,-17.313492 2.7313,-4.324611 4.70393,-8.6339903 5.31088,-14.5518303 0.60699,-5.91784 0.35751,-9.534384 -2.65544,-11.47152 1.25528,4.38368 -1.06218,6.160632 -1.06218,6.160632 0,0 -1.42634,1.213904 -2.86788,-2.12436 -1.44154,-3.338256 -4.99223,-12.2150397 -4.99223,-12.2150397 z m 10.30312,19.3316317 c 0,0 -0.24609,8.1583383 -4.99223,14.7642693 -6.5694,9.143429 -14.76428,10.576263 -17.41972,12.852349 -2.65544,2.27612 -11.69915,8.102902 -19.43784,8.709857 -7.73875,0.606983 -12.63992,-2.549229 -12.63992,-2.549229 l 0.63731,-0.212434 c 0,0 7.45043,-1.304966 9.34716,-2.443012 1.89676,-1.13804 13.35309,-5.265371 14.87049,-4.886016 1.5174,0.37936 5.94819,-1.91192 8.60364,-5.098452 2.65544,-3.186532 4.2487,-10.51556 4.2487,-10.51556 l 0.84974,8.284988 c 0,0 4.93153,-3.323102 7.96633,-7.64768 3.03481,-4.3245763 2.23058,-10.6217763 2.23058,-10.6217763 0,0 1.41118,1.274616 2.54922,1.805704 1.13804,0.531088 3.18654,-2.443008 3.18654,-2.443008 z M 462.52764,13.819393 c 0,0 1.21391,5.73576 -0.53108,9.453382 -1.745,3.717624 -4.99224,4.461144 -4.99224,4.461144 0,0 -0.45523,-6.084732 1.59326,-9.34716 2.04846,-3.2624 3.93006,-4.567366 3.93006,-4.567366 z m -35.58295,4.567366 c 0,0 5.76611,4.233514 6.37307,12.958565 -0.30353,0 -6.79912,-1.830789 -7.7539,-4.886017 -1.89679,-6.069572 1.38083,-8.072548 1.38083,-8.072548 z"
       id="path30478"
          />
    <path
       style="font-size:14.57518196000000000px;font-style:normal;font-variant:normal;font-weight:bold;font-stretch:normal;text-align:center;line-height:133.00000428999999000%;letter-spacing:-0.52694892999999998px;word-spacing:0px;text-anchor:middle;fill:#000000;fill-opacity:1;stroke:none;font-family:Arial;-inkscape-font-specification:Arial Bold"
       d="m 393.37988,219.66941 c -2.6704,4e-5 -5.07279,0.47599 -7.11659,1.48704 -1.53661,0.74965 -2.95081,1.95373 -4.24871,3.5052 -1.28298,1.55152 -2.22819,3.25226 -2.9741,5.20466 -0.99953,2.64977 -1.48704,5.97342 -1.48704,9.87826 0,6.10138 1.36948,10.8529 4.2487,14.3394 2.87923,3.46904 6.80566,5.20466 11.68395,5.20466 4.81863,0 8.69847,-1.71818 11.57775,-5.20466 2.8792,-3.50394 4.24867,-8.36331 4.2487,-14.55184 -3e-5,-6.24081 -1.44589,-11.15409 -4.35493,-14.65805 -2.89418,-3.5039 -6.7442,-5.20463 -11.57773,-5.20467 z m 33.98968,0 c -2.6704,4e-5 -5.07279,0.47599 -7.11659,1.48704 -1.53661,0.74965 -2.95081,1.95373 -4.24871,3.5052 -1.28297,1.55152 -2.22819,3.25226 -2.9741,5.20466 -0.99952,2.64977 -1.59327,5.97342 -1.59327,9.87826 0,6.10138 1.47571,10.8529 4.35494,14.3394 2.87922,3.46904 6.80565,5.20466 11.68395,5.20466 4.81862,0 8.59226,-1.71818 11.47151,-5.20466 2.8792,-3.50394 4.35491,-8.36331 4.35494,-14.55184 -3e-5,-6.24081 -1.44589,-11.15409 -4.35494,-14.65805 -2.89417,-3.5039 -6.74419,-5.20463 -11.57773,-5.20467 z m 30.90937,0 c -2.52121,4e-5 -4.68908,0.38558 -6.47929,1.27461 -1.77528,0.88911 -3.0815,2.22171 -4.03627,3.93006 -0.93985,1.69098 -1.48705,3.4647 -1.48705,5.4171 0,3.03328 1.06633,5.6446 3.08032,7.7539 1.43216,1.49922 3.88468,2.79535 7.43524,3.82384 2.75989,0.80192 4.53511,1.27951 5.31089,1.59327 1.13376,0.47069 1.88921,1.0545 2.33679,1.69948 0.46246,0.62758 0.74349,1.43032 0.74352,2.33679 -3e-5,1.41203 -0.61045,2.65426 -1.69948,3.71763 -1.07415,1.04596 -2.64651,1.59326 -4.7798,1.59326 -2.01399,0 -3.58635,-0.62028 -4.7798,-1.8057 -1.17856,-1.1854 -1.94893,-3.10184 -2.33679,-5.62954 l -6.47928,0.74352 c 0.43262,4.28842 1.81345,7.62946 4.03627,9.87826 2.22283,2.23135 5.41228,3.29274 9.5596,3.29274 2.84939,0 5.20701,-0.45692 7.1166,-1.38082 1.90953,-0.94136 3.31062,-2.33116 4.35492,-4.24872 1.04426,-1.91756 1.59324,-3.96412 1.59327,-6.16063 -3e-5,-2.42309 -0.39446,-4.52195 -1.27462,-6.16063 -0.86528,-1.65608 -2.05991,-2.88246 -3.6114,-3.82384 -1.53661,-0.95874 -4.00045,-1.87259 -7.22281,-2.76166 -3.22239,-0.88904 -5.21898,-1.83609 -6.05441,-2.65544 -0.65641,-0.64499 -0.95596,-1.43029 -0.95596,-2.3368 0,-0.99361 0.36101,-1.74404 1.06217,-2.33679 1.08904,-0.92387 2.53665,-1.38079 4.46116,-1.38082 1.86477,3e-5 3.32374,0.40301 4.2487,1.27461 0.93986,0.85423 1.52223,2.27887 1.8057,4.24871 l 6.58551,-0.31848 c -0.10435,-3.52134 -1.20423,-6.28184 -3.29275,-8.39121 -2.07368,-2.1093 -5.12351,-3.1865 -9.24095,-3.18653 z m 98.35764,0 c -2.6704,4e-5 -5.07279,0.47599 -7.11659,1.48704 -1.5366,0.74965 -2.95081,1.95373 -4.2487,3.5052 -1.28298,1.55152 -2.2282,3.25226 -2.97411,5.20466 -0.99953,2.64977 -1.48704,5.97342 -1.48704,9.87826 0,6.10138 1.36947,10.8529 4.24871,14.3394 2.87924,3.46904 6.80565,5.20466 11.68396,5.20466 4.8186,0 8.69846,-1.71818 11.57773,-5.20466 2.87919,-3.50394 4.24867,-8.36331 4.24871,-14.55184 -4e-5,-6.24081 -1.44588,-11.15409 -4.35493,-14.65805 -2.89419,-3.5039 -6.74419,-5.20463 -11.57774,-5.20467 z m 33.98968,0 c -2.6704,4e-5 -5.07278,0.47599 -7.11658,1.48704 -1.53661,0.74965 -2.95082,1.95373 -4.24871,3.5052 -1.28298,1.55152 -2.2282,3.25226 -2.9741,5.20466 -0.99954,2.64977 -1.59326,5.97342 -1.59326,9.87826 0,6.10138 1.47569,10.8529 4.35492,14.3394 2.87924,3.46904 6.80565,5.20466 11.68396,5.20466 4.81861,0 8.59224,-1.71818 11.47152,-5.20466 2.8792,-3.50394 4.35488,-8.36331 4.35492,-14.55184 -4e-5,-6.24081 -1.44588,-11.15409 -4.35492,-14.65805 -2.8942,-3.5039 -6.7442,-5.20463 -11.57775,-5.20467 z m 30.90938,0 c -2.52123,4e-5 -4.68909,0.38558 -6.47929,1.27461 -1.77528,0.88911 -3.0815,2.22171 -4.03627,3.93006 -0.93986,1.69098 -1.48706,3.4647 -1.48706,5.4171 0,3.03328 1.06633,5.6446 3.08032,7.7539 1.43216,1.49922 3.88468,2.79535 7.43524,3.82384 2.75991,0.80192 4.53511,1.27951 5.31089,1.59327 1.13376,0.47069 1.88922,1.0545 2.33679,1.69948 0.46247,0.62758 0.7435,1.43032 0.74353,2.33679 -3e-5,1.41203 -0.50424,2.65426 -1.59326,3.71763 -1.07415,1.04596 -2.75273,1.59326 -4.88603,1.59326 -2.01398,0 -3.58635,-0.62028 -4.7798,-1.8057 -1.17856,-1.1854 -1.94893,-3.10184 -2.33678,-5.62954 l -6.47929,0.74352 c 0.43262,4.28842 1.81346,7.62946 4.03627,9.87826 2.22283,2.23135 5.41228,3.29274 9.5596,3.29274 2.84939,0 5.20703,-0.45692 7.11659,-1.38082 1.90955,-0.94136 3.41685,-2.33116 4.46116,-4.24872 1.04425,-1.91756 1.487,-3.96412 1.48704,-6.16063 -4e-5,-2.42309 -0.39445,-4.52195 -1.27461,-6.16063 -0.86527,-1.65608 -2.05991,-2.88246 -3.61141,-3.82384 -1.53661,-0.95874 -4.00045,-1.87259 -7.22281,-2.76166 -3.22239,-0.88904 -5.21897,-1.83609 -6.05441,-2.65544 -0.6564,-0.64499 -0.95596,-1.43029 -0.95596,-2.3368 0,-0.99361 0.36101,-1.74404 1.06218,-2.33679 1.08903,-0.92387 2.53666,-1.38079 4.46114,-1.38082 1.86478,3e-5 3.32376,0.40301 4.24872,1.27461 0.93984,0.85423 1.52223,2.27887 1.8057,4.24871 l 6.5855,-0.31848 c -0.10435,-3.52134 -1.20422,-6.28184 -3.29275,-8.39121 -2.07368,-2.1093 -5.1235,-3.1865 -9.24094,-3.18653 z m -279.35271,0.63731 0,38.34461 6.16063,0 0,-30.16584 6.47929,30.16584 6.37306,0 6.5855,-30.16584 0,30.16584 6.16063,0 0,-38.34461 -9.98447,0 -5.84198,26.12957 -5.94819,-26.12957 -9.98447,0 z m 133.62194,0 0,38.34461 24.85495,0 0,-6.47928 -18.26945,0 0,-10.40935 16.46376,0 0,-6.47928 -16.46376,0 0,-8.49742 17.73836,0 0,-6.47928 -24.32386,0 z m 163.2567,0 0,38.34461 24.85495,0 0,-6.47928 -18.26946,0 0,-10.40935 16.46376,0 0,-6.47928 -16.46376,0 0,-8.49742 17.73837,0 0,-6.47928 -24.32386,0 z m -123.10639,0.31848 0,38.02596 23.04926,0 0,-6.47929 -16.46375,0 0,-31.54667 -6.58551,0 z m -122.46908,5.62954 c 2.73006,3e-5 4.83823,1.13115 6.47929,3.29275 1.65591,2.16164 2.54919,5.37907 2.54922,9.77204 -3e-5,4.4453 -0.84855,7.75311 -2.54922,9.98446 -1.68578,2.21392 -3.83876,3.39898 -6.47929,3.39898 -2.64055,0 -4.86989,-1.16762 -6.58549,-3.39898 -1.71564,-2.24878 -2.54923,-5.53756 -2.54923,-9.87825 0,-4.4104 0.87836,-7.69917 2.54923,-9.87825 1.67083,-2.19644 3.85541,-3.29272 6.58549,-3.29275 z m 33.88347,0 c 2.73005,3e-5 4.94445,1.13115 6.5855,3.29275 1.65591,2.16164 2.54919,5.37907 2.54923,9.77204 -4e-5,4.4453 -0.84856,7.75311 -2.54923,9.98446 -1.68578,2.21392 -3.94498,3.39898 -6.5855,3.39898 -2.64056,0 -4.76368,-1.16762 -6.47928,-3.39898 -1.71563,-2.24878 -2.54923,-5.53756 -2.54923,-9.87825 0,-4.4104 0.77215,-7.69917 2.44301,-9.87825 1.67083,-2.19644 3.85542,-3.29272 6.5855,-3.29275 z m 129.37324,0 c 2.73004,3e-5 4.83822,1.13115 6.47928,3.29275 1.65591,2.16164 2.54919,5.37907 2.54922,9.77204 -3e-5,4.4453 -0.84855,7.75311 -2.54922,9.98446 -1.68579,2.21392 -3.83876,3.39898 -6.47928,3.39898 -2.64056,0 -4.86992,-1.16762 -6.58551,-3.39898 -1.71563,-2.24878 -2.54922,-5.53756 -2.54922,-9.87825 0,-4.4104 0.87836,-7.69917 2.54922,-9.87825 1.67083,-2.19644 3.85542,-3.29272 6.58551,-3.29275 z m 33.98968,0 c 2.73004,3e-5 4.83822,1.13115 6.47928,3.29275 1.65591,2.16164 2.54919,5.37907 2.54922,9.77204 -3e-5,4.4453 -0.84854,7.75311 -2.54922,9.98446 -1.68579,2.21392 -3.83876,3.39898 -6.47928,3.39898 -2.64056,0 -4.86991,-1.16762 -6.58551,-3.39898 -1.71563,-2.24878 -2.54922,-5.53756 -2.54922,-9.87825 0,-4.4104 0.77214,-7.69917 2.44301,-9.87825 1.67083,-2.19644 3.96163,-3.29272 6.69172,-3.29275 z m -103.77476,64.58039 c -2.6704,4e-5 -5.07279,0.58222 -7.11659,1.59328 -1.5366,0.74964 -2.95081,1.8475 -4.2487,3.39896 -1.28298,1.55153 -2.22819,3.35849 -2.9741,5.31089 -0.99953,2.64977 -1.59327,5.86719 -1.59327,9.77203 0,6.10139 1.4757,10.95912 4.35493,14.44562 2.87923,3.46906 6.80565,5.09846 11.68395,5.09846 4.81862,0 8.59226,-1.71819 11.47152,-5.20468 2.87919,-3.50392 4.3549,-8.3633 4.35493,-14.55183 -3e-5,-6.24081 -1.44589,-11.04787 -4.35493,-14.55183 -2.89418,-3.5039 -6.7442,-5.31086 -11.57774,-5.3109 z m 19.54408,0.63732 0,38.3446 6.0544,0 0,-24.96116 13.27722,24.96116 6.69172,0 0,-38.3446 -6.16062,0 0,25.59848 -13.48967,-25.59848 -6.37305,0 z m -19.54408,6.0544 c 2.73005,4e-5 4.94445,1.02493 6.58551,3.18654 1.6559,2.16164 2.54918,5.48529 2.54922,9.87825 -4e-5,4.44531 -0.84855,7.75311 -2.54922,9.98447 -1.68579,2.21392 -3.94499,3.29275 -6.58551,3.29275 -2.64055,0 -4.76368,-1.06139 -6.47928,-3.29275 -1.71563,-2.24879 -2.54923,-5.53756 -2.54923,-9.87825 0,-4.4104 0.77215,-7.69917 2.44301,-9.87825 1.67083,-2.19645 3.85542,-3.29272 6.5855,-3.29276 z m -25.06739,64.5804 c -2.6704,4e-5 -5.07279,0.476 -7.11659,1.48705 -1.53661,0.74965 -2.95081,1.95373 -4.2487,3.50519 -1.28298,1.55152 -2.2282,3.25227 -2.97411,5.20467 -0.99953,2.64977 -1.48704,5.97341 -1.48704,9.87825 0,6.10139 1.36947,10.85291 4.24871,14.3394 2.87923,3.46905 6.80565,5.20467 11.68396,5.20467 4.8186,0 8.59224,-1.71818 11.47151,-5.20467 2.8792,-3.50393 4.35489,-8.3633 4.35493,-14.55184 -4e-5,-6.2408 -1.44588,-11.15408 -4.35493,-14.65804 -2.89419,-3.5039 -6.74419,-5.20464 -11.57774,-5.20468 z m 108.55455,0 c -3.13286,4e-5 -5.75663,0.63938 -7.86011,1.91192 -2.75989,1.65612 -4.83469,4.01364 -6.26685,7.1166 -1.43216,3.10301 -2.12436,6.62975 -2.12436,10.62177 0,3.67826 0.62896,7.05907 1.91192,10.19691 1.28298,3.12042 3.1847,5.53185 5.73576,7.2228 2.55104,1.67352 5.49108,2.54923 8.92229,2.54923 2.70021,0 5.44688,-0.62028 8.07255,-1.80571 2.64053,-1.20282 4.667,-2.57356 6.05441,-4.14248 l 0,-15.29536 -14.33939,0 0,6.47928 7.64768,0 0,4.88602 c -0.99957,0.9065 -2.20909,1.6918 -3.61141,2.33678 -1.38741,0.6276 -2.86132,0.95596 -4.2487,0.95596 -2.80467,0 -5.06743,-1.13273 -6.79794,-3.39896 -1.73056,-2.28364 -2.54923,-5.75323 -2.54923,-10.30312 0,-4.21864 0.84852,-7.4154 2.54923,-9.5596 1.71559,-2.14417 4.00996,-3.1865 6.90415,-3.18654 1.90954,4e-5 3.51172,0.60128 4.7798,1.69949 1.28294,1.08084 2.19295,2.47224 2.65544,4.35493 l 6.58551,-1.38066 c -0.65645,-3.52134 -2.16375,-6.29765 -4.46115,-8.28499 -2.28255,-2.00471 -5.48692,-2.97407 -9.5596,-2.9741 z m -89.1167,0.63731 0,38.34461 6.69172,0 0,-16.03888 1.27462,0 c 1.52164,0 2.6978,0.12848 3.39896,0.42487 0.70114,0.27905 1.28532,0.80882 1.91192,1.59327 0.62657,0.76704 1.80448,2.64861 3.50519,5.62954 l 4.7798,8.3912 7.96633,0 -4.03628,-7.54146 c -1.58136,-2.98093 -2.7778,-4.99264 -3.71762,-6.16063 -0.92496,-1.16795 -2.17925,-2.21031 -3.6114,-3.18653 2.87923,-0.4881 5.03218,-1.74612 6.47928,-3.61141 1.44705,-1.88269 2.23054,-4.24021 2.23058,-7.11659 -4e-5,-2.26619 -0.53232,-4.29371 -1.48705,-6.05441 -0.95481,-1.76063 -2.22762,-2.93151 -3.82384,-3.61141 -1.58138,-0.69726 -4.14188,-1.06214 -7.64768,-1.06217 l -13.91453,0 z m 31.22802,0 0,38.34461 6.69172,0 0,-38.34461 -6.69172,0 z m 11.36531,0 0,38.34461 6.16062,0 0,-24.96117 13.171,24.96117 6.69172,0 0,-38.34461 -6.16062,0 0,25.59848 -13.38344,-25.59848 -6.47928,0 z m -102.71258,0.31849 0,38.02595 23.04926,0 0,-6.47928 -16.46375,0 0,-31.54667 -6.58551,0 z m 40.78763,5.62954 c 2.73004,3e-5 4.83822,1.13114 6.47928,3.29274 1.6559,2.16164 2.54919,5.37908 2.54922,9.77204 -3e-5,4.44531 -0.84855,7.85933 -2.54922,10.09068 -1.68579,2.21392 -3.83876,3.29276 -6.47928,3.29276 -2.64056,0 -4.86992,-1.16762 -6.58551,-3.39897 -1.71563,-2.24879 -2.54923,-5.53757 -2.54923,-9.87825 0,-4.4104 0.77215,-7.69918 2.44302,-9.87826 1.67082,-2.19644 3.96163,-3.29271 6.69172,-3.29274 z m 26.02334,0.53108 5.09846,0 c 2.68528,4e-5 4.34894,0.0204 4.88601,0.10606 1.07411,0.20936 1.86118,0.7914 2.44301,1.59326 0.59672,0.78448 0.95593,1.79034 0.95596,3.08031 -3e-5,1.15059 -0.29605,2.10087 -0.74353,2.86788 -0.44757,0.76705 -1.01506,1.27951 -1.80569,1.59327 -0.79071,0.31372 -2.7706,0.53112 -5.9482,0.53108 l -4.88602,0 0,-9.77203 z"
       id="text30491"
        />
    <rect
       style="fill:none;stroke:#000000;stroke-width:10.199;stroke-linejoin:round;stroke-miterlimit:4;stroke-dasharray:none"
       id="rect30499"
       width="372.47174"
       height="473.01398"
       x="315.18774"
       y="-41.030457"
       ry="12.875537" />
  </g>
</svg>
