<?xml version="1.0" encoding="utf-8"?>
<!-- Generator: Adobe Illustrator 23.1.1, SVG Export Plug-In . SVG Version: 6.00 Build 0)  -->
<svg version="1.1" id="Layer_1" xmlns="http://www.w3.org/2000/svg" xmlns:xlink="http://www.w3.org/1999/xlink" x="0px" y="0px"
	 viewBox="0 0 400 400" style="enable-background:new 0 0 400 400;" xml:space="preserve">
<style type="text/css">
	.st0{fill:#231F20;}
</style>
<g>
	<path class="st0" d="M383.25,5.17c6.48,0,11.75,5.27,11.75,11.75v366.49c0,6.48-5.27,11.75-11.75,11.75H16.75
		C10.27,395.17,5,389.9,5,383.42V16.92c0-6.48,5.27-11.75,11.75-11.75H383.25 M383.25,0.17H16.75C7.5,0.17,0,7.67,0,16.92v366.49
		c0,9.25,7.5,16.75,16.75,16.75h366.49c9.25,0,16.75-7.5,16.75-16.75V16.92C400,7.67,392.5,0.17,383.25,0.17L383.25,0.17z"/>
</g>
<g>
	<path class="st0" d="M371.24,11.66c9.25,0,16.75,7.5,16.75,16.75V370.9c0,9.25-7.5,16.75-16.75,16.75H28.76
		c-9.25,0-16.75-7.5-16.75-16.75V28.41c0-9.25,7.5-16.75,16.75-16.75H371.24 M371.24,10.66H28.76C18.97,10.66,11,18.62,11,28.41
		V370.9c0,9.79,7.96,17.75,17.75,17.75h342.49c9.79,0,17.75-7.96,17.75-17.75V28.41C389,18.62,381.03,10.66,371.24,10.66
		L371.24,10.66z"/>
</g>
<g>
	<path d="M42.97,185.31h11.25c3.67,0,6.55,0.9,8.62,2.7c2.07,1.8,3.11,4.28,3.11,7.45c0,3.22-1.03,5.72-3.08,7.49
		c-2.05,1.77-4.95,2.66-8.7,2.66h-2.49v8.38h-8.72V185.31z M51.68,199.05h1.17c1.46,0,2.54-0.29,3.25-0.89
		c0.7-0.59,1.06-1.5,1.06-2.73s-0.35-2.13-1.04-2.7c-0.69-0.57-1.78-0.85-3.26-0.85h-1.17V199.05z"/>
	<path d="M69.53,185.31h9.24v21.32h11.43v7.36H69.53V185.31z"/>
	<path d="M104.47,185.31h9.43L125,213.99h-9.62l-1.85-5.92h-9.28l-1.81,5.92h-9.02L104.47,185.31z M111.46,201.28l-2.57-8.34
		l-2.57,8.34H111.46z"/>
	<path d="M140.96,214.41c-3.27,0-6.08-0.57-8.43-1.72c-2.35-1.15-4.16-2.82-5.43-5.02c-1.27-2.2-1.91-4.86-1.91-7.98
		c0-2.79,0.65-5.31,1.94-7.55c1.29-2.24,3.15-4,5.57-5.3s5.21-1.94,8.38-1.94c1.71,0,3.39,0.19,5.04,0.58s3.04,0.92,4.17,1.6
		l-1.43,7.51c-1.03-0.5-2.19-0.91-3.47-1.21c-1.28-0.3-2.45-0.45-3.51-0.45c-2.26,0-4.03,0.6-5.3,1.79
		c-1.27,1.19-1.91,2.85-1.91,4.96c0,2.09,0.64,3.72,1.92,4.91c1.28,1.18,3.04,1.77,5.28,1.77c1.13,0,2.41-0.21,3.83-0.62
		c1.42-0.41,2.7-0.96,3.83-1.64l0.98,7.93c-1.08,0.7-2.5,1.28-4.27,1.72C144.48,214.19,142.72,214.41,140.96,214.41z"/>
	<path d="M154.85,185.31h20.79v6.83h-12.49v4h10.94v6.83h-10.94v4.19h13.02v6.83h-21.32V185.31z"/>
	<path d="M180.7,185.31h9.25v10.38h8.91v-10.38h9.24v28.68h-9.24v-10.94h-8.91v10.94h-9.25V185.31z"/>
	<path d="M228.09,214.6c-3.02,0-5.72-0.61-8.11-1.85c-2.39-1.23-4.27-2.98-5.66-5.24c-1.38-2.26-2.08-4.88-2.08-7.85
		c0-2.72,0.66-5.21,1.98-7.47c1.32-2.26,3.2-4.07,5.62-5.43c2.43-1.36,5.18-2.04,8.25-2.04c3.02,0,5.72,0.62,8.11,1.85
		c2.39,1.23,4.28,2.98,5.66,5.24c1.38,2.26,2.08,4.88,2.08,7.85c0,2.72-0.66,5.21-1.98,7.47c-1.32,2.27-3.19,4.07-5.62,5.44
		C233.91,213.92,231.16,214.6,228.09,214.6z M228.09,206.56c1.86,0,3.39-0.64,4.58-1.93c1.19-1.28,1.79-2.93,1.79-4.94
		c0-2.04-0.59-3.7-1.77-5c-1.18-1.29-2.71-1.94-4.6-1.94c-1.86,0-3.39,0.64-4.58,1.92c-1.19,1.28-1.79,2.93-1.79,4.94
		c0,2.04,0.59,3.7,1.77,5C224.67,205.91,226.21,206.56,228.09,206.56z"/>
	<path d="M248.09,185.31h9.24v21.32h11.44v7.36h-20.68V185.31z"/>
	<path d="M272.73,185.31h11.85c5.46,0,9.61,1.22,12.45,3.66c2.84,2.44,4.26,6,4.26,10.68c0,2.94-0.65,5.49-1.96,7.64
		c-1.31,2.15-3.21,3.8-5.71,4.96c-2.51,1.15-5.52,1.74-9.04,1.74h-11.85V185.31z M281.79,206.82h2.38c5.11,0,7.66-2.39,7.66-7.17
		c0-4.78-2.55-7.17-7.66-7.17h-2.38V206.82z"/>
	<path d="M305.45,185.31h20.79v6.83h-12.49v4h10.94v6.83h-10.94v4.19h13.02v6.83h-21.32V185.31z"/>
	<path d="M331.3,185.31h11.25c3.72,0,6.61,0.89,8.66,2.68c2.05,1.79,3.08,4.29,3.08,7.51c0,1.51-0.35,2.93-1.04,4.26
		c-0.69,1.33-1.66,2.4-2.89,3.21l6.68,11.02h-9.92l-4.04-8.38h-3.06v8.38h-8.72V185.31z M340.01,199.05h1.32
		c1.41,0,2.45-0.29,3.13-0.89c0.68-0.59,1.02-1.5,1.02-2.73s-0.33-2.13-0.98-2.7c-0.65-0.57-1.71-0.85-3.17-0.85h-1.32V199.05z"/>
</g>
</svg>
